{
  "accessors": [
    {
      "bufferView": 2,
      "componentType": 5126,
      "count": 1548,
      "max": [
        0.7442867755889893,
        0.4371279180049896,
        3.7875545024871826
      ],
      "min": [
        -1.025457739830017,
        -0.625751256942749,
        -3.36555814743042
      ],
      "type": "VEC3"
    },
    {
      "bufferView": 2,
      "byteOffset": 18576,
      "componentType": 5126,
      "count": 1548,
      "max": [
        0.9999999403953552,
        1.0,
        0.9999999403953552
      ],
      "min": [
        -0.9999998807907104,
        -1.0,
        -0.9999998807907104
      ],
      "type": "VEC3"
    },
    {
      "bufferView": 1,
      "componentType": 5126,
      "count": 1548,
      "max": [
        1.0,
        1.0
      ],
      "min": [
        0.0,
        0.0
      ],
      "type": "VEC2"
    },
    {
      "bufferView": 0,
      "componentType": 5125,
      "count": 2460,
      "type": "SCALAR"
    },
    {
      "bufferView": 2,
      "byteOffset": 37152,
      "componentType": 5126,
      "count": 2208,
      "max": [
        0.8776590824127197,
        0.3830210268497467,
        3.3077714443206787
      ],
      "min": [
        -1.039625883102417,
        -0.5855772495269775,
        -4.4501848220825195
      ],
      "type": "VEC3"
    },
    {
      "bufferView": 2,
      "byteOffset": 63648,
      "componentType": 5126,
      "count": 2208,
      "max": [
        1.0,
        1.0,
        0.9998082518577576
      ],
      "min": [
        -0.9999987483024597,
        -1.0,
        -0.999998152256012
      ],
      "type": "VEC3"
    },
    {
      "bufferView": 1,
      "byteOffset": 12384,
      "componentType": 5126,
      "count": 2208,
      "max": [
        1.6896347999572754,
        2.1045780181884766
      ],
      "min": [
        -0.6896347999572754,
        -1.124588131904602
      ],
      "type": "VEC2"
    },
    {
      "bufferView": 0,
      "byteOffset": 9840,
      "componentType": 5125,
      "count": 3306,
      "type": "SCALAR"
    },
    {
      "bufferView": 2,
      "byteOffset": 90144,
      "componentType": 5126,
      "count": 886,
      "max": [
        0.7933523654937744,
        0.4481063187122345,
        3.809880018234253
      ],
      "min": [
        -0.6901265382766724,
        -0.4720832407474518,
        -2.4793007373809814
      ],
      "type": "VEC3"
    },
    {
      "bufferView": 2,
      "byteOffset": 100776,
      "componentType": 5126,
      "count": 886,
      "max": [
        0.9999058246612549,
        1.0,
        0.9998980164527893
      ],
      "min": [
        -1.0,
        -1.0,
        -0.9999319911003113
      ],
      "type": "VEC3"
    },
    {
      "bufferView": 1,
      "byteOffset": 30048,
      "componentType": 5126,
      "count": 886,
      "max": [
        1.0,
        1.0
      ],
      "min": [
        0.0,
        0.0
      ],
      "type": "VEC2"
    },
    {
      "bufferView": 0,
      "byteOffset": 23064,
      "componentType": 5125,
      "count": 1476,
      "type": "SCALAR"
    },
    {
      "bufferView": 2,
      "byteOffset": 111408,
      "componentType": 5126,
      "count": 246,
      "max": [
        0.44672274589538574,
        0.3763863146305084,
        2.4196040630340576
      ],
      "min": [
        -0.34984052181243896,
        -0.4346455931663513,
        0.5454018115997314
      ],
      "type": "VEC3"
    },
    {
      "bufferView": 2,
      "byteOffset": 114360,
      "componentType": 5126,
      "count": 246,
      "max": [
        0.9999998807907104,
        1.0,
        0.9831863641738892
      ],
      "min": [
        -0.9999051094055176,
        -1.0,
        -0.9832848906517029
      ],
      "type": "VEC3"
    },
    {
      "bufferView": 1,
      "byteOffset": 37136,
      "componentType": 5126,
      "count": 246,
      "max": [
        0.875,
        1.0
      ],
      "min": [
        0.125,
        0.0
      ],
      "type": "VEC2"
    },
    {
      "bufferView": 0,
      "byteOffset": 28968,
      "componentType": 5125,
      "count": 360,
      "type": "SCALAR"
    },
    {
      "bufferView": 2,
      "byteOffset": 117312,
      "componentType": 5126,
      "count": 88,
      "max": [
        0.47796034812927246,
        0.012150228023529053,
        1.6463425159454346
      ],
      "min": [
        0.21988940238952637,
        -0.23188838362693787,
        0.6683990955352783
      ],
      "type": "VEC3"
    },
    {
      "bufferView": 2,
      "byteOffset": 118368,
      "componentType": 5126,
      "count": 88,
      "max": [
        1.0,
        1.0,
        1.0
      ],
      "min": [
        -1.0,
        -1.0,
        -0.9927934408187866
      ],
      "type": "VEC3"
    },
    {
      "bufferView": 1,
      "byteOffset": 39104,
      "componentType": 5126,
      "count": 88,
      "max": [
        0.875,
        1.0
      ],
      "min": [
        0.125,
        0.0
      ],
      "type": "VEC2"
    },
    {
      "bufferView": 0,
      "byteOffset": 30408,
      "componentType": 5125,
      "count": 132,
      "type": "SCALAR"
    },
    {
      "bufferView": 2,
      "byteOffset": 119424,
      "componentType": 5126,
      "count": 264,
      "max": [
        0.4178037643432617,
        0.4238743484020233,
        1.7949836254119873
      ],
      "min": [
        -0.2656930685043335,
        -0.20503950119018555,
        -0.6279685497283936
      ],
      "type": "VEC3"
    },
    {
      "bufferView": 2,
      "byteOffset": 122592,
      "componentType": 5126,
      "count": 264,
      "max": [
        0.9975134134292603,
        0.999879002571106,
        0.985039472579956
      ],
      "min": [
        -0.9916760921478271,
        -0.995184063911438,
        -0.9850399494171143
      ],
      "type": "VEC3"
    },
    {
      "bufferView": 1,
      "byteOffset": 39808,
      "componentType": 5126,
      "count": 264,
      "max": [
        1.0,
        1.0
      ],
      "min": [
        0.0,
        0.0
      ],
      "type": "VEC2"
    },
    {
      "bufferView": 0,
      "byteOffset": 30936,
      "componentType": 5125,
      "count": 522,
      "type": "SCALAR"
    },
    {
      "bufferView": 2,
      "byteOffset": 125760,
      "componentType": 5126,
      "count": 1200,
      "max": [
        0.8681268692016602,
        0.4032973349094391,
        2.6353838443756104
      ],
      "min": [
        -1.001103401184082,
        -0.39321595430374146,
        -2.430142879486084
      ],
      "type": "VEC3"
    },
    {
      "bufferView": 2,
      "byteOffset": 140160,
      "componentType": 5126,
      "count": 1200,
      "max": [
        0.999517560005188,
        1.0,
        0.9968193769454956
      ],
      "min": [
        -0.9977381825447083,
        -1.0,
        -0.9948223233222961
      ],
      "type": "VEC3"
    },
    {
      "bufferView": 1,
      "byteOffset": 41920,
      "componentType": 5126,
      "count": 1200,
      "max": [
        1.0,
        1.0000014305114746
      ],
      "min": [
        0.0,
        0.0
      ],
      "type": "VEC2"
    },
    {
      "bufferView": 0,
      "byteOffset": 33024,
      "componentType": 5125,
      "count": 1848,
      "type": "SCALAR"
    },
    {
      "bufferView": 2,
      "byteOffset": 154560,
      "componentType": 5126,
      "count": 1056,
      "max": [
        -0.04468488693237305,
        0.44384703040122986,
        1.6909663677215576
      ],
      "min": [
        -0.38984930515289307,
        0.3704608976840973,
        1.3451416492462158
      ],
      "type": "VEC3"
    },
    {
      "bufferView": 2,
      "byteOffset": 167232,
      "componentType": 5126,
      "count": 1056,
      "max": [
        0.995185375213623,
        0.9998790621757507,
        0.9950672388076782
      ],
      "min": [
        -0.9951849579811096,
        -0.9998789429664612,
        -0.9950642585754395
      ],
      "type": "VEC3"
    },
    {
      "bufferView": 1,
      "byteOffset": 51520,
      "componentType": 5126,
      "count": 1056,
      "max": [
        1.0,
        1.0
      ],
      "min": [
        0.0,
        0.01000000536441803
      ],
      "type": "VEC2"
    },
    {
      "bufferView": 0,
      "byteOffset": 40416,
      "componentType": 5125,
      "count": 1626,
      "type": "SCALAR"
    },
    {
      "bufferView": 2,
      "byteOffset": 179904,
      "componentType": 5126,
      "count": 120,
      "max": [
        0.3614654541015625,
        0.36785635352134705,
        0.8893818855285645
      ],
      "min": [
        -0.6439924240112305,
        -0.5748609304428101,
        -0.9996204376220703
      ],
      "type": "VEC3"
    },
    {
      "bufferView": 2,
      "byteOffset": 181344,
      "componentType": 5126,
      "count": 120,
      "max": [
        0.99983149766922,
        0.9994085431098938,
        0.9998666048049927
      ],
      "min": [
        -0.9920761585235596,
        -0.9994096159934998,
        -0.9989493489265442
      ],
      "type": "VEC3"
    },
    {
      "bufferView": 1,
      "byteOffset": 59968,
      "componentType": 5126,
      "count": 120,
      "max": [
        0.5868692398071289,
        0.8088319301605225
      ],
      "min": [
        -0.7021973729133606,
        -0.9053651094436646
      ],
      "type": "VEC2"
    },
    {
      "bufferView": 0,
      "byteOffset": 46920,
      "componentType": 5125,
      "count": 180,
      "type": "SCALAR"
    },
    {
      "bufferView": 2,
      "byteOffset": 182784,
      "componentType": 5126,
      "count": 5008,
      "max": [
        0.8317992687225342,
        0.4019347131252289,
        2.4609415531158447
      ],
      "min": [
        -0.7319635152816772,
        -0.3621702790260315,
        -2.644437313079834
      ],
      "type": "VEC3"
    },
    {
      "bufferView": 2,
      "byteOffset": 242880,
      "componentType": 5126,
      "count": 5008,
      "max": [
        0.999997615814209,
        0.9999998807907104,
        0.9998482465744019
      ],
      "min": [
        -0.999997615814209,
        -0.9999998807907104,
        -0.999868631362915
      ],
      "type": "VEC3"
    },
    {
      "bufferView": 1,
      "byteOffset": 60928,
      "componentType": 5126,
      "count": 5008,
      "max": [
        1.0,
        1.0
      ],
      "min": [
        0.0,
        0.0
      ],
      "type": "VEC2"
    },
    {
      "bufferView": 0,
      "byteOffset": 47640,
      "componentType": 5125,
      "count": 27096,
      "type": "SCALAR"
    }
  ],
  "asset": {
    "extras": {
      "author": "csengsz1 (https://sketchfab.com/csengsz1)",
      "license": "CC-BY-4.0 (http://creativecommons.org/licenses/by/4.0/)",
      "source": "https://sketchfab.com/3d-models/robot-arm-299e343dab3f4d48b1cfad5b97683945",
      "title": "robot_arm"
    },
    "generator": "Sketchfab-12.65.0",
    "version": "2.0"
  },
  "bufferViews": [
    {
      "buffer": 0,
      "byteLength": 156024,
      "name": "floatBufferViews",
      "target": 34963
    },
    {
      "buffer": 0,
      "byteLength": 100992,
      "byteOffset": 156024,
      "byteStride": 8,
      "name": "floatBufferViews",
      "target": 34962
    },
    {
      "buffer": 0,
      "byteLength": 302976,
      "byteOffset": 257016,
      "byteStride": 12,
      "name": "floatBufferViews",
      "target": 34962
    }
  ],
  "buffers": [
    {
      "byteLength": 559992,
      "uri": "scene.bin"
    }
  ],
  "materials": [
    {
      "doubleSided": true,
      "name": "orange",
      "pbrMetallicRoughness": {
        "baseColorFactor": [
          0.8,
          0.190345,
          0.0171545,
          1.0
        ],
        "metallicFactor": 0.0,
        "roughnessFactor": 0.9086967219576335
      }
    },
    {
      "doubleSided": true,
      "name": "Material.001",
      "pbrMetallicRoughness": {
        "baseColorFactor": [
          0.8,
          0.8,
          0.8,
          1.0
        ],
        "metallicFactor": 0.0
      }
    },
    {
      "doubleSided": true,
      "name": "Material.002",
      "pbrMetallicRoughness": {
        "baseColorFactor": [
          0.726058,
          0.70411,
          0.7484,
          1.0
        ],
        "metallicFactor": 0.0,
        "roughnessFactor": 0.774854089579822
      }
    },
    {
      "doubleSided": true,
      "name": "Material.003",
      "pbrMetallicRoughness": {
        "baseColorFactor": [
          0.8,
          0.8,
          0.8,
          1.0
        ],
        "metallicFactor": 0.0,
        "roughnessFactor": 0.8211145618000169
      }
    },
    {
      "doubleSided": true,
      "name": "String_material",
      "pbrMetallicRoughness": {
        "baseColorFactor": [
          0.1,
          0.1,
          0.1,
          1.0
        ],
        "metallicFactor": 0.0,
        "roughnessFactor": 0.9755051025721683
      }
    },
    {
      "doubleSided": true,
      "name": "light",
      "pbrMetallicRoughness": {
        "baseColorFactor": [
          0.8,
          0.8,
          0.8,
          1.0
        ],
        "metallicFactor": 0.0,
        "roughnessFactor": 0.8040408205773457
      }
    },
    {
      "doubleSided": true,
      "name": "Material.004",
      "pbrMetallicRoughness": {
        "baseColorFactor": [
          0.0549691,
          0.0549691,
          0.0549691,
          1.0
        ],
        "metallicFactor": 0.0,
        "roughnessFactor": 0.9826172443070438
      }
    },
    {
      "doubleSided": true,
      "name": "base",
      "pbrMetallicRoughness": {
        "baseColorFactor": [
          0.132864,
          0.132864,
          0.132864,
          1.0
        ],
        "metallicFactor": 0.0,
        "roughnessFactor": 0.9579847140959389
      }
    },
    {
      "doubleSided": true,
      "name": "Material.007",
      "pbrMetallicRoughness": {
        "baseColorFactor": [
          0.8,
          0.8,
          0.8,
          1.0
        ],
        "metallicFactor": 0.0,
        "roughnessFactor": 0.7470177871865296
      }
    },
    {
      "doubleSided": true,
      "name": "Material.005",
      "pbrMetallicRoughness": {
        "baseColorFactor": [
          0.8,
          0.8,
          0.8,
          1.0
        ],
        "metallicFactor": 0.0,
        "roughnessFactor": 0.8040408205773457
      }
    }
  ],
  "meshes": [
    {
      "name": "fingers_orange_0",
      "primitives": [
        {
          "attributes": {
            "NORMAL": 1,
            "POSITION": 0,
            "TEXCOORD_0": 2
          },
          "indices": 3,
          "material": 0,
          "mode": 4
        }
      ]
    },
    {
      "name": "fingers_Material.001_0",
      "primitives": [
        {
          "attributes": {
            "NORMAL": 5,
            "POSITION": 4,
            "TEXCOORD_0": 6
          },
          "indices": 7,
          "material": 1,
          "mode": 4
        }
      ]
    },
    {
      "name": "fingers_Material.002_0",
      "primitives": [
        {
          "attributes": {
            "NORMAL": 9,
            "POSITION": 8,
            "TEXCOORD_0": 10
          },
          "indices": 11,
          "material": 2,
          "mode": 4
        }
      ]
    },
    {
      "name": "fingers_Material.003_0",
      "primitives": [
        {
          "attributes": {
            "NORMAL": 13,
            "POSITION": 12,
            "TEXCOORD_0": 14
          },
          "indices": 15,
          "material": 3,
          "mode": 4
        }
      ]
    },
    {
      "name": "fingers_String_material_0",
      "primitives": [
        {
          "attributes": {
            "NORMAL": 17,
            "POSITION": 16,
            "TEXCOORD_0": 18
          },
          "indices": 19,
          "material": 4,
          "mode": 4
        }
      ]
    },
    {
      "name": "fingers_light_0",
      "primitives": [
        {
          "attributes": {
            "NORMAL": 21,
            "POSITION": 20,
            "TEXCOORD_0": 22
          },
          "indices": 23,
          "material": 5,
          "mode": 4
        }
      ]
    },
    {
      "name": "fingers_Material.004_0",
      "primitives": [
        {
          "attributes": {
            "NORMAL": 25,
            "POSITION": 24,
            "TEXCOORD_0": 26
          },
          "indices": 27,
          "material": 6,
          "mode": 4
        }
      ]
    },
    {
      "name": "fingers_base_0",
      "primitives": [
        {
          "attributes": {
            "NORMAL": 29,
            "POSITION": 28,
            "TEXCOORD_0": 30
          },
          "indices": 31,
          "material": 7,
          "mode": 4
        }
      ]
    },
    {
      "name": "fingers_Material.007_0",
      "primitives": [
        {
          "attributes": {
            "NORMAL": 33,
            "POSITION": 32,
            "TEXCOORD_0": 34
          },
          "indices": 35,
          "material": 8,
          "mode": 4
        }
      ]
    },
    {
      "name": "fingers_Material.005_0",
      "primitives": [
        {
          "attributes": {
            "NORMAL": 37,
            "POSITION": 36,
            "TEXCOORD_0": 38
          },
          "indices": 39,
          "material": 9,
          "mode": 4
        }
      ]
    }
  ],
  "nodes": [
    {
      "children": [
        1
      ],
      "matrix": [
        1.0,
        0.0,
        0.0,
        0.0,
        0.0,
        2.220446049250313e-16,
        -1.0,
        0.0,
        0.0,
        1.0,
        2.220446049250313e-16,
        0.0,
        0.0,
        0.0,
        0.0,
        1.0
      ],
      "name": "Sketchfab_model"
    },
    {
      "children": [
        2
      ],
      "matrix": [
        0.009999999776482582,
        0.0,
        0.0,
        0.0,
        0.0,
        0.0,
        0.009999999776482582,
        0.0,
        0.0,
        -0.009999999776482582,
        0.0,
        0.0,
        0.0,
        0.0,
        0.0,
        1.0
      ],
      "name": "933f82690c45442e9d265161336c7f68.fbx"
    },
    {
      "children": [
        3
      ],
      "name": "RootNode"
    },
    {
      "children": [
        4,
        5,
        6,
        7,
        8,
        9,
        10,
        11,
        12,
        13
      ],
      "matrix": [
        100.0,
        0.0,
        0.0,
        0.0,
        -0.0,
        -1.629206793918314e-05,
        -99.99999999999868,
        0.0,
        0.0,
        99.99999999999868,
        -1.629206793918314e-05,
        0.0,
        -5.122232437133789,
        473.87200927734375,
        -10.986891746520996,
        1.0
      ],
      "name": "fingers"
    },
    {
      "mesh": 0,
      "name": "fingers_orange_0"
    },
    {
      "mesh": 1,
      "name": "fingers_Material.001_0"
    },
    {
      "mesh": 2,
      "name": "fingers_Material.002_0"
    },
    {
      "mesh": 3,
      "name": "fingers_Material.003_0"
    },
    {
      "mesh": 4,
      "name": "fingers_String_material_0"
    },
    {
      "mesh": 5,
      "name": "fingers_light_0"
    },
    {
      "mesh": 6,
      "name": "fingers_Material.004_0"
    },
    {
      "mesh": 7,
      "name": "fingers_base_0"
    },
    {
      "mesh": 8,
      "name": "fingers_Material.007_0"
    },
    {
      "mesh": 9,
      "name": "fingers_Material.005_0"
    }
  ],
  "scene": 0,
  "scenes": [
    {
      "name": "Sketchfab_Scene",
      "nodes": [
        0
      ]
    }
  ]
}
