{
  "accessors": [
    {
      "bufferView": 2,
      "componentType": 5126,
      "count": 26549,
      "max": [
        0.805508017539978,
        0.891381025314331,
        4.2638468742370605
      ],
      "min": [
        -0.8594139814376831,
        -0.891381025314331,
        0.1004130020737648
      ],
      "type": "VEC3"
    },
    {
      "bufferView": 2,
      "byteOffset": 318588,
      "componentType": 5126,
      "count": 26549,
      "max": [
        1.0,
        1.0,
        1.0
      ],
      "min": [
        -1.0,
        -1.0,
        -1.0
      ],
      "type": "VEC3"
    },
    {
      "bufferView": 1,
      "componentType": 5126,
      "count": 26549,
      "max": [
        1.1230390071868896,
        1.0
      ],
      "min": [
        0.0,
        0.009999999776482582
      ],
      "type": "VEC2"
    },
    {
      "bufferView": 0,
      "componentType": 5125,
      "count": 155136,
      "type": "SCALAR"
    },
    {
      "bufferView": 2,
      "byteOffset": 637176,
      "componentType": 5126,
      "count": 43506,
      "max": [
        0.8218759894371033,
        0.9084270000457764,
        4.057027816772461
      ],
      "min": [
        -0.8695080280303955,
        -2.189218044281006,
        0.13107599318027496
      ],
      "type": "VEC3"
    },
    {
      "bufferView": 2,
      "byteOffset": 1159248,
      "componentType": 5126,
      "count": 43506,
      "max": [
        0.9999343156814575,
        0.999897837638855,
        0.9999998807907104
      ],
      "min": [
        -0.9999487400054932,
        -0.9999957084655762,
        -0.9999446868896484
      ],
      "type": "VEC3"
    },
    {
      "bufferView": 0,
      "byteOffset": 620544,
      "componentType": 5125,
      "count": 250512,
      "type": "SCALAR"
    },
    {
      "bufferView": 2,
      "byteOffset": 1681320,
      "componentType": 5126,
      "count": 17802,
      "max": [
        0.810371994972229,
        0.896589994430542,
        4.051671028137207
      ],
      "min": [
        -0.8642780184745789,
        -0.896589994430542,
        0.1363469958305359
      ],
      "type": "VEC3"
    },
    {
      "bufferView": 2,
      "byteOffset": 1894944,
      "componentType": 5126,
      "count": 17802,
      "max": [
        1.0,
        1.0,
        0.628614068031311
      ],
      "min": [
        -1.0,
        -1.0,
        -0.4886794984340668
      ],
      "type": "VEC3"
    },
    {
      "bufferView": 1,
      "byteOffset": 212392,
      "componentType": 5126,
      "count": 17802,
      "max": [
        0.8365370035171509,
        0.9764829874038696
      ],
      "min": [
        -0.0997529998421669,
        0.17854900658130646
      ],
      "type": "VEC2"
    },
    {
      "bufferView": 0,
      "byteOffset": 1622592,
      "componentType": 5125,
      "count": 104448,
      "type": "SCALAR"
    },
    {
      "bufferView": 2,
      "byteOffset": 2108568,
      "componentType": 5126,
      "count": 17688,
      "max": [
        0.44893699884414673,
        0.46845200657844543,
        4.629284858703613
      ],
      "min": [
        -0.48796701431274414,
        -0.46845200657844543,
        4.228057861328125
      ],
      "type": "VEC3"
    },
    {
      "bufferView": 2,
      "byteOffset": 2320824,
      "componentType": 5126,
      "count": 17688,
      "max": [
        1.0,
        1.0,
        1.0
      ],
      "min": [
        -1.0,
        -1.0,
        -1.0
      ],
      "type": "VEC3"
    },
    {
      "bufferView": 1,
      "byteOffset": 354808,
      "componentType": 5126,
      "count": 17688,
      "max": [
        1.0,
        1.0
      ],
      "min": [
        0.0,
        0.009999999776482582
      ],
      "type": "VEC2"
    },
    {
      "bufferView": 0,
      "byteOffset": 2040384,
      "componentType": 5125,
      "count": 101376,
      "type": "SCALAR"
    }
  ],
  "asset": {
    "extras": {
      "author": "jayjaymalcolm1 (https://sketchfab.com/jayjaymalcolm1)",
      "license": "CC-BY-4.0 (http://creativecommons.org/licenses/by/4.0/)",
      "source": "https://sketchfab.com/3d-models/ksi-prime-186328adc3844d039ba99cc7e173497d",
      "title": "ksi Prime"
    },
    "generator": "Sketchfab-13.90.0",
    "version": "2.0"
  },
  "bufferViews": [
    {
      "buffer": 0,
      "byteLength": 2445888,
      "name": "floatBufferViews",
      "target": 34963
    },
    {
      "buffer": 0,
      "byteLength": 496312,
      "byteOffset": 2445888,
      "byteStride": 8,
      "name": "floatBufferViews",
      "target": 34962
    },
    {
      "buffer": 0,
      "byteLength": 2533080,
      "byteOffset": 2942200,
      "byteStride": 12,
      "name": "floatBufferViews",
      "target": 34962
    }
  ],
  "buffers": [
    {
      "byteLength": 5475280,
      "uri": "scene.bin"
    }
  ],
  "extensionsUsed": [
    "KHR_materials_clearcoat"
  ],
  "images": [
    {
      "uri": "textures/Material.002_baseColor.png"
    }
  ],
  "materials": [
    {
      "doubleSided": true,
      "name": "Material",
      "pbrMetallicRoughness": {
        "metallicFactor": 0.0,
        "roughnessFactor": 0.8720384117388178
      }
    },
    {
      "doubleSided": true,
      "name": "Material.001",
      "pbrMetallicRoughness": {
        "baseColorFactor": [
          0.8,
          0.8,
          0.8,
          1.0
        ],
        "metallicFactor": 0.0,
        "roughnessFactor": 0.7823575448040042
      }
    },
    {
      "doubleSided": true,
      "name": "Material.002",
      "pbrMetallicRoughness": {
        "baseColorTexture": {
          "index": 0
        },
        "metallicFactor": 0.0,
        "roughnessFactor": 0.8011823178082373
      }
    },
    {
      "doubleSided": true,
      "extensions": {
        "KHR_materials_clearcoat": {
          "clearcoatFactor": 1.0,
          "clearcoatRoughnessFactor": 0.04
        }
      },
      "name": "Material.003",
      "pbrMetallicRoughness": {
        "baseColorFactor": [
          0.8,
          0.038908,
          0.02598,
          1.0
        ],
        "metallicFactor": 0.0,
        "roughnessFactor": 0.8011823178082373
      }
    }
  ],
  "meshes": [
    {
      "name": "Object_0",
      "primitives": [
        {
          "attributes": {
            "NORMAL": 1,
            "POSITION": 0,
            "TEXCOORD_0": 2
          },
          "indices": 3,
          "material": 0,
          "mode": 4
        }
      ]
    },
    {
      "name": "Object_1",
      "primitives": [
        {
          "attributes": {
            "NORMAL": 5,
            "POSITION": 4
          },
          "indices": 6,
          "material": 1,
          "mode": 4
        }
      ]
    },
    {
      "name": "Object_2",
      "primitives": [
        {
          "attributes": {
            "NORMAL": 8,
            "POSITION": 7,
            "TEXCOORD_0": 9
          },
          "indices": 10,
          "material": 2,
          "mode": 4
        }
      ]
    },
    {
      "name": "Object_3",
      "primitives": [
        {
          "attributes": {
            "NORMAL": 12,
            "POSITION": 11,
            "TEXCOORD_0": 13
          },
          "indices": 14,
          "material": 3,
          "mode": 4
        }
      ]
    }
  ],
  "nodes": [
    {
      "children": [
        1
      ],
      "matrix": [
        1.0,
        0.0,
        0.0,
        0.0,
        0.0,
        2.220446049250313e-16,
        -1.0,
        0.0,
        0.0,
        1.0,
        2.220446049250313e-16,
        0.0,
        0.0,
        0.0,
        0.0,
        1.0
      ],
      "name": "Sketchfab_model"
    },
    {
      "children": [
        2,
        3,
        4,
        5
      ],
      "name": "Prime.obj.cleaner.materialmerger.gles"
    },
    {
      "mesh": 0,
      "name": "Object_2"
    },
    {
      "mesh": 1,
      "name": "Object_3"
    },
    {
      "mesh": 2,
      "name": "Object_4"
    },
    {
      "mesh": 3,
      "name": "Object_5"
    }
  ],
  "samplers": [
    {
      "magFilter": 9729,
      "minFilter": 9987,
      "wrapS": 10497,
      "wrapT": 10497
    }
  ],
  "scene": 0,
  "scenes": [
    {
      "name": "Sketchfab_Scene",
      "nodes": [
        0
      ]
    }
  ],
  "textures": [
    {
      "sampler": 0,
      "source": 0
    }
  ]
}
